<svg width="1169" height="491" viewBox="0 0 1169 491" fill="none" xmlns="http://www.w3.org/2000/svg">
<circle cx="173" cy="318" r="143" stroke="#FD3838" stroke-width="60"/>
<circle cx="299" cy="47" r="47" fill="#FD3838"/>
<path d="M446.82 389.278C442.702 389.278 439.365 388 436.809 385.444C434.395 382.888 433.188 379.551 433.188 375.433V250.402C433.188 246.284 434.395 243.018 436.809 240.604C439.365 238.048 442.702 236.77 446.82 236.77C451.08 236.77 454.417 238.048 456.831 240.604C459.387 243.018 460.665 246.284 460.665 250.402V375.433C460.665 379.551 459.387 382.888 456.831 385.444C454.417 388 451.08 389.278 446.82 389.278ZM551.243 281.287C563.739 281.287 573.04 284.837 579.146 291.937C585.252 299.037 588.305 309.758 588.305 324.1V376.498C588.305 380.474 587.098 383.598 584.684 385.87C582.412 388.142 579.217 389.278 575.099 389.278C570.981 389.278 567.715 388.142 565.301 385.87C562.887 383.598 561.68 380.474 561.68 376.498V325.591C561.68 317.497 560.118 311.604 556.994 307.912C554.012 304.22 549.255 302.374 542.723 302.374C535.055 302.374 528.878 304.788 524.192 309.616C519.648 314.444 517.376 320.905 517.376 328.999V376.498C517.376 380.474 516.169 383.598 513.755 385.87C511.341 388.142 508.075 389.278 503.957 389.278C499.839 389.278 496.573 388.142 494.159 385.87C491.887 383.598 490.751 380.474 490.751 376.498V294.067C490.751 290.375 491.958 287.393 494.372 285.121C496.786 282.849 500.052 281.713 504.17 281.713C507.862 281.713 510.844 282.849 513.116 285.121C515.53 287.251 516.737 290.091 516.737 293.641V299.392C520.287 293.57 525.044 289.097 531.008 285.973C536.972 282.849 543.717 281.287 551.243 281.287ZM669.45 369.469C676.55 369.895 680.1 373.09 680.1 379.054C680.1 382.462 678.68 385.089 675.84 386.935C673.142 388.639 669.237 389.349 664.125 389.065L658.374 388.639C634.518 386.935 622.59 374.155 622.59 350.299V303.865H611.94C608.106 303.865 605.124 303.013 602.994 301.309C601.006 299.605 600.012 297.12 600.012 293.854C600.012 290.588 601.006 288.103 602.994 286.399C605.124 284.695 608.106 283.843 611.94 283.843H622.59V264.247C622.59 260.413 623.797 257.36 626.211 255.088C628.625 252.816 631.891 251.68 636.009 251.68C639.985 251.68 643.18 252.816 645.594 255.088C648.008 257.36 649.215 260.413 649.215 264.247V283.843H667.32C671.154 283.843 674.065 284.695 676.053 286.399C678.183 288.103 679.248 290.588 679.248 293.854C679.248 297.12 678.183 299.605 676.053 301.309C674.065 303.013 671.154 303.865 667.32 303.865H649.215V352.216C649.215 362.724 654.043 368.333 663.699 369.043L669.45 369.469ZM776.406 359.458C778.82 359.458 780.737 360.381 782.157 362.227C783.719 364.073 784.5 366.558 784.5 369.682C784.5 374.084 781.873 377.776 776.619 380.758C771.791 383.456 766.324 385.657 760.218 387.361C754.112 388.923 748.29 389.704 742.752 389.704C725.996 389.704 712.719 384.876 702.921 375.22C693.123 365.564 688.224 352.358 688.224 335.602C688.224 324.952 690.354 315.509 694.614 307.273C698.874 299.037 704.838 292.647 712.506 288.103C720.316 283.559 729.12 281.287 738.918 281.287C748.29 281.287 756.455 283.346 763.413 287.464C770.371 291.582 775.767 297.404 779.601 304.93C783.435 312.456 785.352 321.331 785.352 331.555C785.352 337.661 782.654 340.714 777.258 340.714H714.423C715.275 350.512 718.044 357.754 722.73 362.44C727.416 366.984 734.232 369.256 743.178 369.256C747.722 369.256 751.698 368.688 755.106 367.552C758.656 366.416 762.632 364.854 767.034 362.866C771.294 360.594 774.418 359.458 776.406 359.458ZM739.557 300.031C732.315 300.031 726.493 302.303 722.091 306.847C717.831 311.391 715.275 317.923 714.423 326.443H762.561C762.277 317.781 760.147 311.249 756.171 306.847C752.195 302.303 746.657 300.031 739.557 300.031ZM865.28 281.713C868.972 281.429 871.883 282.21 874.013 284.056C876.143 285.902 877.208 288.671 877.208 292.363C877.208 296.197 876.285 299.037 874.439 300.883C872.593 302.729 869.256 303.936 864.428 304.504L858.038 305.143C849.66 305.995 843.483 308.835 839.507 313.663C835.673 318.491 833.756 324.526 833.756 331.768V376.498C833.756 380.616 832.478 383.811 829.922 386.083C827.366 388.213 824.171 389.278 820.337 389.278C816.503 389.278 813.308 388.213 810.752 386.083C808.338 383.811 807.131 380.616 807.131 376.498V294.067C807.131 290.091 808.338 287.038 810.752 284.908C813.308 282.778 816.432 281.713 820.124 281.713C823.816 281.713 826.798 282.778 829.07 284.908C831.342 286.896 832.478 289.807 832.478 293.641V302.161C835.176 295.913 839.152 291.085 844.406 287.677C849.802 284.269 855.766 282.352 862.298 281.926L865.28 281.713ZM949.162 281.287C961.658 281.287 970.959 284.837 977.065 291.937C983.171 299.037 986.224 309.758 986.224 324.1V376.498C986.224 380.474 985.017 383.598 982.603 385.87C980.331 388.142 977.136 389.278 973.018 389.278C968.9 389.278 965.634 388.142 963.22 385.87C960.806 383.598 959.599 380.474 959.599 376.498V325.591C959.599 317.497 958.037 311.604 954.913 307.912C951.931 304.22 947.174 302.374 940.642 302.374C932.974 302.374 926.797 304.788 922.111 309.616C917.567 314.444 915.295 320.905 915.295 328.999V376.498C915.295 380.474 914.088 383.598 911.674 385.87C909.26 388.142 905.994 389.278 901.876 389.278C897.758 389.278 894.492 388.142 892.078 385.87C889.806 383.598 888.67 380.474 888.67 376.498V294.067C888.67 290.375 889.877 287.393 892.291 285.121C894.705 282.849 897.971 281.713 902.089 281.713C905.781 281.713 908.763 282.849 911.035 285.121C913.449 287.251 914.656 290.091 914.656 293.641V299.392C918.206 293.57 922.963 289.097 928.927 285.973C934.891 282.849 941.636 281.287 949.162 281.287ZM1026.47 389.278C1022.64 389.278 1019.44 388.213 1016.89 386.083C1014.47 383.811 1013.27 380.616 1013.27 376.498V294.28C1013.27 290.162 1014.47 287.038 1016.89 284.908C1019.44 282.778 1022.64 281.713 1026.47 281.713C1030.31 281.713 1033.5 282.778 1036.06 284.908C1038.61 287.038 1039.89 290.162 1039.89 294.28V376.498C1039.89 380.616 1038.61 383.811 1036.06 386.083C1033.5 388.213 1030.31 389.278 1026.47 389.278ZM1026.47 262.756C1021.64 262.756 1017.81 261.478 1014.97 258.922C1012.13 256.224 1010.71 252.745 1010.71 248.485C1010.71 244.225 1012.13 240.817 1014.97 238.261C1017.81 235.705 1021.64 234.427 1026.47 234.427C1031.16 234.427 1034.92 235.705 1037.76 238.261C1040.74 240.817 1042.23 244.225 1042.23 248.485C1042.23 252.745 1040.81 256.224 1037.97 258.922C1035.13 261.478 1031.3 262.756 1026.47 262.756ZM1112.5 281.287C1126.99 281.287 1137.71 284.908 1144.67 292.15C1151.77 299.25 1155.32 310.113 1155.32 324.739V376.711C1155.32 380.545 1154.18 383.598 1151.91 385.87C1149.64 388 1146.51 389.065 1142.54 389.065C1138.85 389.065 1135.79 387.929 1133.38 385.657C1131.11 383.385 1129.97 380.403 1129.97 376.711V372.025C1127.56 377.563 1123.72 381.894 1118.47 385.018C1113.36 388.142 1107.39 389.704 1100.58 389.704C1093.62 389.704 1087.3 388.284 1081.62 385.444C1075.94 382.604 1071.47 378.699 1068.2 373.729C1064.93 368.759 1063.3 363.221 1063.3 357.115C1063.3 349.447 1065.22 343.412 1069.05 339.01C1073.03 334.608 1079.42 331.413 1088.22 329.425C1097.03 327.437 1109.17 326.443 1124.65 326.443H1129.97V321.544C1129.97 314.586 1128.48 309.545 1125.5 306.421C1122.52 303.155 1117.69 301.522 1111.01 301.522C1106.9 301.522 1102.71 302.161 1098.45 303.439C1094.19 304.575 1089.15 306.279 1083.32 308.551C1079.63 310.397 1076.93 311.32 1075.23 311.32C1072.67 311.32 1070.54 310.397 1068.84 308.551C1067.28 306.705 1066.5 304.291 1066.5 301.309C1066.5 298.895 1067.06 296.836 1068.2 295.132C1069.48 293.286 1071.54 291.582 1074.38 290.02C1079.35 287.322 1085.24 285.192 1092.06 283.63C1099.01 282.068 1105.83 281.287 1112.5 281.287ZM1105.9 370.534C1113 370.534 1118.75 368.191 1123.15 363.505C1127.7 358.677 1129.97 352.5 1129.97 344.974V340.501H1126.14C1116.62 340.501 1109.24 340.927 1103.98 341.779C1098.73 342.631 1094.97 344.122 1092.7 346.252C1090.42 348.382 1089.29 351.293 1089.29 354.985C1089.29 359.529 1090.85 363.292 1093.97 366.274C1097.24 369.114 1101.22 370.534 1105.9 370.534Z" fill="black"/>
</svg>
